<svg width="32" height="32" viewBox="0 0 32 32" fill="none" xmlns="http://www.w3.org/2000/svg">
<g clip-path="url(#clip0_127_1137)">
<path d="M25.546 7.86851C25.6397 7.96227 25.6924 8.08943 25.6924 8.22201C25.6924 8.35459 25.6397 8.48175 25.546 8.57551L18.121 16L25.546 23.425C25.6396 23.5188 25.6922 23.6458 25.6922 23.7783C25.6922 23.9107 25.6396 24.0378 25.546 24.1315L24.1315 25.546C24.0377 25.6397 23.9106 25.6924 23.778 25.6924C23.6454 25.6924 23.5183 25.6397 23.4245 25.546L16 18.121L8.57501 25.546C8.48127 25.6396 8.35422 25.6922 8.22176 25.6922C8.0893 25.6922 7.96225 25.6396 7.86851 25.546L6.45401 24.1315C6.36027 24.0377 6.30762 23.9106 6.30762 23.778C6.30762 23.6454 6.36027 23.5183 6.45401 23.4245L13.879 16L6.45401 8.57501C6.36043 8.48127 6.30787 8.35422 6.30787 8.22176C6.30787 8.0893 6.36043 7.96225 6.45401 7.86851L7.86851 6.45401C7.96227 6.36027 8.08943 6.30762 8.22201 6.30762C8.35459 6.30762 8.48175 6.36027 8.57551 6.45401L16 13.879L23.425 6.45401C23.5188 6.36043 23.6458 6.30787 23.7783 6.30787C23.9107 6.30787 24.0378 6.36043 24.1315 6.45401L25.546 7.86851Z" fill="black" fill-opacity="0.85"/>
</g>
<defs>
<clipPath id="clip0_127_1137">
<rect width="32" height="32" fill="white"/>
</clipPath>
</defs>
</svg>
