<svg width="32" height="32" viewBox="0 0 32 32" fill="none" xmlns="http://www.w3.org/2000/svg">
<g clip-path="url(#clip0_127_1151)">
<path d="M21.6685 4.83551L13.5385 27.1705C13.5034 27.267 13.4395 27.3503 13.3554 27.4091C13.2713 27.468 13.1711 27.4995 13.0685 27.4995H10.584C10.5439 27.4995 10.5043 27.4898 10.4687 27.4713C10.4331 27.4528 10.4025 27.4259 10.3794 27.3931C10.3564 27.3602 10.3416 27.3223 10.3363 27.2825C10.331 27.2427 10.3353 27.2023 10.349 27.1645L18.4785 4.82851C18.5136 4.73206 18.5775 4.64875 18.6616 4.5899C18.7457 4.53104 18.8459 4.49948 18.9485 4.49951H21.4335C21.4737 4.4995 21.5133 4.50918 21.549 4.52773C21.5846 4.54629 21.6153 4.57316 21.6383 4.60608C21.6614 4.63901 21.6762 4.67701 21.6814 4.71686C21.6867 4.75671 21.6822 4.79724 21.6685 4.83501V4.83551ZM23.882 8.88701L23.929 8.92901L30.293 15.293C30.4805 15.4805 30.5858 15.7348 30.5858 16C30.5858 16.2652 30.4805 16.5195 30.293 16.707L23.929 23.071C23.8352 23.1647 23.7081 23.2174 23.5755 23.2174C23.4429 23.2174 23.3158 23.1647 23.222 23.071L21.8075 21.657C21.7214 21.5709 21.6697 21.4564 21.6621 21.3349C21.6544 21.2133 21.6914 21.0932 21.766 20.997L21.8075 20.9495L26.7575 15.9995L21.8075 11.05C21.7138 10.9562 21.6611 10.8291 21.6611 10.6965C21.6611 10.5639 21.7138 10.4368 21.8075 10.343L23.222 8.92901C23.308 8.84285 23.4225 8.79104 23.5441 8.78331C23.6656 8.77558 23.7857 8.81245 23.882 8.88701ZM8.071 8.92901C8.15703 8.84285 8.27155 8.79104 8.39306 8.78331C8.51457 8.77558 8.63473 8.81245 8.731 8.88701L8.778 8.92901L10.1925 10.343L10.234 10.39C10.302 10.4777 10.339 10.5855 10.339 10.6965C10.339 10.8075 10.302 10.9153 10.234 11.003L10.1925 11.05L5.24249 16L10.1925 20.95L10.234 20.9965C10.302 21.0842 10.339 21.192 10.339 21.303C10.339 21.414 10.302 21.5218 10.234 21.6095L10.1925 21.6565L8.778 23.071C8.6919 23.1571 8.57735 23.2088 8.45584 23.2165C8.33432 23.2241 8.2142 23.1871 8.118 23.1125L8.071 23.071L1.707 16.707C1.53002 16.5301 1.42583 16.2932 1.415 16.0431C1.40417 15.7931 1.48749 15.5481 1.6485 15.3565L1.707 15.293L8.071 8.92901Z" fill="black" fill-opacity="0.85"/>
</g>
<defs>
<clipPath id="clip0_127_1151">
<rect width="32" height="32" fill="white"/>
</clipPath>
</defs>
</svg>
