<svg width="32" height="32" viewBox="0 0 32 32" fill="none" xmlns="http://www.w3.org/2000/svg">
<g clip-path="url(#clip0_127_1123)">
<path d="M27 2.5C27.2652 2.5 27.5196 2.60536 27.7071 2.79289C27.8946 2.98043 28 3.23478 28 3.5V23C28 23.2652 27.8946 23.5196 27.7071 23.7071C27.5196 23.8946 27.2652 24 27 24H22.5V28.5C22.5 28.7652 22.3946 29.0196 22.2071 29.2071C22.0196 29.3946 21.7652 29.5 21.5 29.5H5C4.73478 29.5 4.48043 29.3946 4.29289 29.2071C4.10536 29.0196 4 28.7652 4 28.5V9C4 8.73478 4.10536 8.48043 4.29289 8.29289C4.48043 8.10536 4.73478 8 5 8H9.5V3.5C9.5 3.23478 9.60536 2.98043 9.79289 2.79289C9.98043 2.60536 10.2348 2.5 10.5 2.5H27ZM19.5 11H7V26.5H19.5V11ZM16.5 20C16.6326 20 16.7598 20.0527 16.8536 20.1464C16.9473 20.2402 17 20.3674 17 20.5V22.5C17 22.6326 16.9473 22.7598 16.8536 22.8536C16.7598 22.9473 16.6326 23 16.5 23H10C9.86739 23 9.74021 22.9473 9.64645 22.8536C9.55268 22.7598 9.5 22.6326 9.5 22.5V20.5C9.5 20.3674 9.55268 20.2402 9.64645 20.1464C9.74021 20.0527 9.86739 20 10 20H16.5ZM25 5.5H12.5V8H21.5C21.7652 8 22.0196 8.10536 22.2071 8.29289C22.3946 8.48043 22.5 8.73478 22.5 9V21H25V5.5ZM16.5 14.5C16.6326 14.5 16.7598 14.5527 16.8536 14.6464C16.9473 14.7402 17 14.8674 17 15V17C17 17.1326 16.9473 17.2598 16.8536 17.3536C16.7598 17.4473 16.6326 17.5 16.5 17.5H10C9.86739 17.5 9.74021 17.4473 9.64645 17.3536C9.55268 17.2598 9.5 17.1326 9.5 17V15C9.5 14.8674 9.55268 14.7402 9.64645 14.6464C9.74021 14.5527 9.86739 14.5 10 14.5H16.5Z" fill="black" fill-opacity="0.85"/>
</g>
<defs>
<clipPath id="clip0_127_1123">
<rect width="32" height="32" fill="white"/>
</clipPath>
</defs>
</svg>
