<svg width="32" height="32" viewBox="0 0 32 32" fill="none" xmlns="http://www.w3.org/2000/svg">
<g clip-path="url(#clip0_127_1115)">
<path d="M22 2C22.2652 2 22.5196 2.10536 22.7071 2.29289C22.8946 2.48043 23 2.73478 23 3V6.5H28.5C28.6326 6.5 28.7598 6.55268 28.8536 6.64645C28.9473 6.74021 29 6.86739 29 7V9C29 9.13261 28.9473 9.25979 28.8536 9.35355C28.7598 9.44732 28.6326 9.5 28.5 9.5H26.5V29C26.5 29.2652 26.3946 29.5196 26.2071 29.7071C26.0196 29.8946 25.7652 30 25.5 30H6.5C6.23478 30 5.98043 29.8946 5.79289 29.7071C5.60536 29.5196 5.5 29.2652 5.5 29V9.5H3.5C3.36739 9.5 3.24021 9.44732 3.14645 9.35355C3.05268 9.25979 3 9.13261 3 9V7C3 6.86739 3.05268 6.74021 3.14645 6.64645C3.24021 6.55268 3.36739 6.5 3.5 6.5H9V3C9 2.73478 9.10536 2.48043 9.29289 2.29289C9.48043 2.10536 9.73478 2 10 2H22ZM23.5 9.5H8.5V27H23.5V9.5ZM14 13C14.1326 13 14.2598 13.0527 14.3536 13.1464C14.4473 13.2402 14.5 13.3674 14.5 13.5V23C14.5 23.1326 14.4473 23.2598 14.3536 23.3536C14.2598 23.4473 14.1326 23.5 14 23.5H12C11.8674 23.5 11.7402 23.4473 11.6464 23.3536C11.5527 23.2598 11.5 23.1326 11.5 23V13.5C11.5 13.3674 11.5527 13.2402 11.6464 13.1464C11.7402 13.0527 11.8674 13 12 13H14ZM20 13C20.1326 13 20.2598 13.0527 20.3536 13.1464C20.4473 13.2402 20.5 13.3674 20.5 13.5V23C20.5 23.1326 20.4473 23.2598 20.3536 23.3536C20.2598 23.4473 20.1326 23.5 20 23.5H18C17.8674 23.5 17.7402 23.4473 17.6464 23.3536C17.5527 23.2598 17.5 23.1326 17.5 23V13.5C17.5 13.3674 17.5527 13.2402 17.6464 13.1464C17.7402 13.0527 17.8674 13 18 13H20ZM20 5H12V6.5H20V5Z" fill="black" fill-opacity="0.85"/>
</g>
<defs>
<clipPath id="clip0_127_1115">
<rect width="32" height="32" fill="white"/>
</clipPath>
</defs>
</svg>
